<?xml version="1.0" encoding="utf-8"?>
<!-- Generator: Adobe Illustrator 21.1.0, SVG Export Plug-In . SVG Version: 6.00 Build 0)  -->
<svg version="1.1" id="Layer_1" xmlns="http://www.w3.org/2000/svg" xmlns:xlink="http://www.w3.org/1999/xlink" x="0px" y="0px"
	 viewBox="0 0 80 80" style="enable-background:new 0 0 80 80;" xml:space="preserve">
<style type="text/css">
	.st0{fill:#EDB886;}
	.st1{fill:#020202;}
	.st2{fill:#B78053;}
	.st3{fill:#75401B;}
	.st4{fill:#502C16;}
	.st5{fill:#9E9E9E;}
	.st6{opacity:0.6;fill:#7E7E7E;enable-background:new    ;}
	.st7{fill:#EDB886;stroke:#020202;stroke-width:3;stroke-linecap:round;stroke-miterlimit:10;}
	.st8{fill:#464646;}
	.st9{fill:#282828;}
	.st10{fill:#747474;}
	.st11{fill:#4E2C16;}
	.st12{fill:#EAB630;}
	.st13{fill:#BF912D;}
	.st14{fill:#A57A2B;}
	.st15{fill:#C4952D;}
	.st16{fill:#F1CA89;}
	.st17{fill:#E0E1E0;}
	.st18{fill:#FFFFFF;}
	.st19{fill:#916627;}
	.st20{fill:#483017;}
	.st21{fill:#68451A;}
</style>
<g>
	<g>
		<path class="st0" d="M27.9,54.6c-0.2,0-0.3,0-0.4,0l-0.3,0l0.2-2.4l0.3,0c0,0,0.1,0,0.2,0c1.1,0,4.7-0.3,6.6-3.7l0.1-0.3l2.1,1.2
			l-0.1,0.3C34,54.2,29.3,54.6,27.9,54.6z"/>
		<g>
			<path class="st1" d="M34.7,48.5l1.6,0.9c-2.5,4.5-7.1,4.9-8.5,4.9c-0.2,0-0.3,0-0.4,0l0.1-1.8c0,0,0.1,0,0.3,0
				C28.9,52.4,32.7,52.2,34.7,48.5 M34.5,47.7l-0.3,0.5c-1.8,3.3-5.3,3.6-6.3,3.6c-0.1,0-0.2,0-0.2,0l-0.6,0l0,0.6l-0.1,1.8l0,0.6
				l0.6,0c0,0,0.2,0,0.4,0c1.4,0,6.4-0.4,9-5.2l0.3-0.5l-0.5-0.3L35,48L34.5,47.7L34.5,47.7z"/>
		</g>
	</g>
	<g>
		<path class="st2" d="M35.8,49.2c-2.5,4.1-7,4.5-8.3,4.5c0,0,0,0,0,0l0,0.7c0,0,0.2,0,0.4,0c1.3,0,6-0.3,8.5-4.9L35.8,49.2z"/>
	</g>
	<g>
		<path class="st3" d="M28.2,55.4c-0.2,0-0.3-0.1-0.3-0.3v-3.4c0-0.1,0.1-0.2,0.2-0.3c0.3-0.1,1.2-0.4,1.6-0.9
			c0.1-0.1,0.1-0.1,0.2-0.1c0.1,0,0.1,0,0.2,0c0.8,0.5,1.9,2.4,0.7,4.4c0,0.1-0.1,0.1-0.1,0.1C30,55.4,28.4,55.4,28.2,55.4z"/>
		<path class="st1" d="M30,50.8c0.6,0.4,1.7,2,0.6,4c-0.7,0.3-2.3,0.3-2.3,0.3v-3.4C28.2,51.7,29.5,51.4,30,50.8 M30,50.2
			c-0.2,0-0.3,0.1-0.5,0.2c-0.3,0.4-1.2,0.7-1.5,0.8c-0.2,0.1-0.4,0.3-0.4,0.6v3.4c0,0.3,0.3,0.6,0.6,0.6c0.3,0,1.8,0,2.6-0.3
			c0.1,0,0.2-0.1,0.3-0.2c1.3-2.2,0.1-4.3-0.8-4.8C30.2,50.2,30.1,50.2,30,50.2L30,50.2z"/>
	</g>
	<path class="st4" d="M31,53.7c-1,0.4-2,0.4-2,0.4l-0.7,0.8v0.2c0,0,1.7,0,2.3-0.3C30.8,54.4,30.9,54.1,31,53.7z"/>
	<g>
		<path class="st0" d="M46.1,57.7l0.1-0.3c0.9-1.5,1.1-2.8,0.7-3.9c-0.6-1.5-2.4-2.2-2.4-2.2l-0.3-0.1l0.1-0.3l0.7-2.1l0.3,0.1
			c0.1,0,2.9,1,3.9,3.7c0.7,1.8,0.4,3.8-0.9,6L48.3,59L46.1,57.7z"/>
		<g>
			<path class="st1" d="M45.3,49.3c0.1,0,2.8,1,3.8,3.5c0.6,1.7,0.4,3.7-0.8,5.8l-1.7-1c0.9-1.6,1.2-3,0.7-4.1
				c-0.6-1.7-2.5-2.4-2.6-2.4L45.3,49.3 M44.9,48.5l-0.2,0.6l-0.6,1.8l-0.2,0.6l0.6,0.2c0.1,0,1.7,0.7,2.2,2c0.4,1,0.1,2.2-0.7,3.6
				l-0.3,0.5l0.5,0.3l1.7,1l0.5,0.3l0.3-0.5c1.3-2.3,1.6-4.4,0.9-6.3c-1.1-2.8-4-3.8-4.1-3.9L44.9,48.5L44.9,48.5z"/>
		</g>
	</g>
	<g>
		<path class="st2" d="M48.6,57.8c0.9-1.8,1-3.5,0.5-5c-0.6-1.7-2-2.6-2.9-3.1l-0.4,1.1c0,0,1.9,0.7,2.6,2.4
			c0.4,1.1,0.2,2.5-0.7,4.1L48.6,57.8z"/>
	</g>
	<g>
		<path class="st5" d="M34.3,61.6c-0.2,0-0.3-0.1-0.3-0.3v-5.5l-0.9-6.2c0-0.1,0-0.2,0.1-0.3l1.5-1.2c0.6-0.8,1.5-1.3,2.6-1.3H43
			c1,0,2,0.5,2.6,1.3l1.5,1.2c0.1,0.1,0.1,0.2,0.1,0.3l-0.9,6.2v5.5c0,0.2-0.1,0.3-0.3,0.3L34.3,61.6L34.3,61.6z"/>
		<path class="st1" d="M43,47.2c1,0,1.8,0.5,2.4,1.2l1.5,1.2l-0.9,6.2v5.5c-2.1,0-8.9,0-11.6,0v-5.5l-0.9-6.3l1.5-1.2
			c0.5-0.7,1.4-1.2,2.4-1.2H43 M43,46.6h-5.7c-1.1,0-2.1,0.5-2.8,1.4L33,49.1c-0.2,0.1-0.2,0.3-0.2,0.5l0.9,6.2v5.4
			c0,0.3,0.3,0.6,0.6,0.6h11.6c0.3,0,0.6-0.3,0.6-0.6v-5.4l0.9-6.2c0-0.2,0-0.4-0.2-0.5l-1.4-1.2C45.1,47.1,44,46.6,43,46.6L43,46.6
			z"/>
	</g>
	<path class="st6" d="M40.7,66.6c9,0,16.3,1.2,16.3,2.6c0,1.4-7.3,2.6-16.3,2.6c-9,0-16.3-1.2-16.3-2.6
		C24.4,67.7,31.7,66.6,40.7,66.6z"/>
	<path class="st7" d="M37.8,43.3c0,0,2.4,1.2,5.1,0"/>
	<g>
		<path class="st8" d="M41.5,69.9c-0.2,0-0.3-0.1-0.3-0.3v-4.3c0-0.6-0.5-1.1-1.1-1.1c-0.6,0-1.1,0.5-1.1,1.1v4.3
			c0,0.2-0.1,0.3-0.3,0.3h-3.4c-0.1,0-0.3-0.1-0.3-0.3l-1-8.3c0-0.1,0-0.2,0.1-0.2c0.1-0.1,0.1-0.1,0.2-0.1h11.6
			c0.1,0,0.2,0,0.2,0.1c0.1,0.1,0.1,0.1,0.1,0.2l-1,8.3c0,0.2-0.1,0.3-0.3,0.3H41.5z"/>
		<g>
			<path class="st1" d="M45.9,61.3l-1,8.3h-3.4v-4.3c0-0.8-0.6-1.4-1.4-1.4s-1.4,0.6-1.4,1.4v4.3h-3.4l-1-8.3L45.9,61.3 M45.9,60.7
				H34.3c-0.2,0-0.3,0.1-0.4,0.2c-0.1,0.1-0.2,0.3-0.1,0.5l1,8.3c0,0.3,0.3,0.5,0.6,0.5h3.4c0.3,0,0.6-0.3,0.6-0.6v-4.3
				c0-0.5,0.4-0.8,0.8-0.8c0.5,0,0.8,0.4,0.8,0.8v4.3c0,0.3,0.3,0.6,0.6,0.6h3.4c0.3,0,0.5-0.2,0.6-0.5l1-8.3c0-0.2,0-0.3-0.1-0.5
				C46.2,60.8,46,60.7,45.9,60.7L45.9,60.7z"/>
		</g>
	</g>
	<path class="st9" d="M44.6,62.6c0,1.2-0.8,2.6-2.6,2.9c1,0.7,2.2,1,3.3,1.2l0.6-5.3h-2.2C44.2,61.7,44.6,62.1,44.6,62.6z"/>
	<g>
		<polygon class="st3" points="34.9,65.9 35.3,69.6 38.7,69.6 38.7,65.9 		"/>
		<g>
			<path class="st3" d="M34.5,67.1c-0.6,0-1.2-0.5-1.2-1.2c0-0.6,0.5-1.2,1.2-1.2h4.7c0.6,0,1.2,0.5,1.2,1.2c0,0.6-0.5,1.2-1.2,1.2
				H34.5z"/>
			<path class="st1" d="M39.2,65.1c0.5,0,0.9,0.4,0.9,0.9c0,0.5-0.4,0.9-0.9,0.9h-4.7c-0.5,0-0.9-0.4-0.9-0.9c0-0.5,0.4-0.9,0.9-0.9
				H39.2 M39.2,64.5h-4.7c-0.8,0-1.5,0.7-1.5,1.5c0,0.8,0.7,1.5,1.5,1.5h4.7c0.8,0,1.5-0.7,1.5-1.5C40.7,65.1,40,64.5,39.2,64.5
				L39.2,64.5z"/>
		</g>
		<polygon class="st3" points="45.3,65.9 44.9,69.6 41.5,69.6 41.5,65.9 		"/>
		<g>
			<path class="st3" d="M34.7,69.9c-0.2,0-0.3-0.1-0.3-0.3c0-1.2,0.8-2.1,1.7-2.1h1.7c1,0,1.7,1,1.7,2.1c0,0.2-0.1,0.3-0.3,0.3H34.7
				z"/>
			<path class="st1" d="M37.9,67.8c0.8,0,1.4,0.8,1.4,1.8h-4.6c0-1,0.6-1.8,1.4-1.8H37.9 M37.9,67.2h-1.7c-1.1,0-2,1.1-2,2.4
				c0,0.3,0.3,0.6,0.6,0.6h4.6c0.3,0,0.6-0.3,0.6-0.6C39.9,68.3,39,67.2,37.9,67.2L37.9,67.2z"/>
		</g>
		<g>
			<path class="st3" d="M40.9,69.9c-0.2,0-0.3-0.1-0.3-0.3c0-1.2,0.8-2.1,1.7-2.1h1.7c1,0,1.7,1,1.7,2.1c0,0.2-0.1,0.3-0.3,0.3H40.9
				z"/>
			<path class="st1" d="M44.1,67.8c0.8,0,1.4,0.8,1.4,1.8h-4.6c0-1,0.6-1.8,1.4-1.8H44.1 M44.1,67.2h-1.7c-1.1,0-2,1.1-2,2.4
				c0,0.3,0.3,0.6,0.6,0.6h4.6c0.3,0,0.6-0.3,0.6-0.6C46.1,68.3,45.2,67.2,44.1,67.2L44.1,67.2z"/>
		</g>
		<path class="st4" d="M39.2,65.1h-2.1c0.4,0.2,0.8,0.5,0.8,0.8c0,0.3-0.1,0.7-0.5,0.9h1.8c0.5,0,0.9-0.4,0.9-0.9
			C40.1,65.5,39.7,65.1,39.2,65.1z"/>
		<g>
			<path class="st3" d="M41,67.1c-0.6,0-1.2-0.5-1.2-1.2c0-0.6,0.5-1.2,1.2-1.2h4.7c0.6,0,1.2,0.5,1.2,1.2c0,0.6-0.5,1.2-1.2,1.2H41
				z"/>
			<path class="st1" d="M45.7,65.1c0.5,0,0.9,0.4,0.9,0.9c0,0.5-0.4,0.9-0.9,0.9H41c-0.5,0-0.9-0.4-0.9-0.9c0-0.5,0.4-0.9,0.9-0.9
				H45.7 M45.7,64.5H41c-0.8,0-1.5,0.7-1.5,1.5c0,0.8,0.7,1.5,1.5,1.5h4.7c0.8,0,1.5-0.7,1.5-1.5C47.2,65.1,46.5,64.5,45.7,64.5
				L45.7,64.5z"/>
		</g>
		<path class="st4" d="M45.7,65.1h-2.1c0.4,0.2,0.8,0.5,0.9,0.8c0,0.3-0.1,0.7-0.5,0.9h1.8c0.5,0,0.9-0.4,0.9-0.9
			C46.6,65.5,46.2,65.1,45.7,65.1z"/>
		<path class="st4" d="M39.3,69.6c0-1-0.6-1.8-1.4-1.8h-0.4c0.5,0.1,0.8,0.4,0.9,0.7c0.1,0.3,0.1,0.8-0.1,1.1H39.3z"/>
		<path class="st4" d="M45.5,69.6c0-1-0.6-1.8-1.4-1.8h-0.4c0.5,0.1,0.8,0.4,0.9,0.7c0.1,0.3,0.1,0.8-0.1,1.1H45.5z"/>
	</g>
	<path class="st4" d="M42.1,61.3h3.8v-1.9h-3.8c0.5,0.3,0.8,0.5,0.8,0.8C42.9,60.5,42.6,60.9,42.1,61.3z"/>
	<path class="st10" d="M46.8,49.6l-1.5-1.2c-0.5-0.7-1.4-1.2-2.4-1.2h-2.3l-0.1,2c0,0,5.7-1.5,3.5,10c0.7,0,1.3,0,1.9-0.1v-3.3
		L46.8,49.6z"/>
	<g>
		<path class="st3" d="M35.3,58.4c-0.2,0-0.3-0.1-0.3-0.3V46.9c0-0.2,0.1-0.3,0.3-0.3h2.3c0.2,0,0.3,0.1,0.3,0.3v11.1
			c0,0.2-0.1,0.3-0.3,0.3H35.3z"/>
		<path class="st1" d="M37.6,46.9v11.1h-2.3V46.9H37.6 M37.6,46.4h-2.3c-0.3,0-0.6,0.3-0.6,0.6v11.1c0,0.3,0.3,0.6,0.6,0.6h2.3
			c0.3,0,0.6-0.3,0.6-0.6V46.9C38.2,46.6,37.9,46.4,37.6,46.4L37.6,46.4z"/>
	</g>
	<g>
		<rect x="37.1" y="46.9" class="st11" width="0.5" height="11.1"/>
	</g>
	<g>
		<path class="st0" d="M40.1,49.9c-8.6,0-15.5-9.5-15.5-21.1c0-7.9,7-14.3,15.5-14.3s15.5,6.4,15.5,14.3
			C55.6,40.4,48.7,49.9,40.1,49.9z"/>
		<path class="st1" d="M40.1,14.8c8.4,0,15.2,6.3,15.2,14c0,11.5-6.8,20.8-15.2,20.8c-8.4,0-15.2-9.3-15.2-20.8
			C24.9,21.1,31.7,14.8,40.1,14.8 M40.1,14.2c-8.7,0-15.8,6.5-15.8,14.6c0,5.7,1.6,11,4.6,15c3,4.1,7,6.3,11.2,6.3s8.2-2.2,11.2-6.3
			c2.9-4,4.6-9.4,4.6-15C55.9,20.7,48.8,14.2,40.1,14.2L40.1,14.2z"/>
	</g>
	<path class="st2" d="M50.7,27.2c0,0,2.8,19.2-11.5,22.4c0.3,0,0.6,0,0.9,0c8.4,0,15.2-9.3,15.2-20.8c0-0.3,0-0.7,0-1l-2-2.5
		L50.7,27.2z"/>
	<circle class="st1" cx="33.1" cy="32.8" r="1.4"/>
	<circle class="st1" cx="47.4" cy="32.8" r="1.4"/>
	<g>
		<path class="st3" d="M34.3,59.6c-0.2,0-0.3-0.1-0.3-0.3v-1.9c0-0.2,0.1-0.3,0.3-0.3h11.6c0.2,0,0.3,0.1,0.3,0.3v1.9
			c0,0.2-0.1,0.3-0.3,0.3H34.3z"/>
		<g>
			<path class="st1" d="M45.9,57.4v1.9H34.3v-1.9H45.9 M45.9,56.8H34.3c-0.3,0-0.6,0.3-0.6,0.6v1.9c0,0.3,0.3,0.6,0.6,0.6h11.6
				c0.3,0,0.6-0.3,0.6-0.6v-1.9C46.5,57.1,46.2,56.8,45.9,56.8L45.9,56.8z"/>
		</g>
	</g>
	<g>
		<path class="st3" d="M39.6,59c-0.5,0-1-0.4-1-1s0.4-1,1-1H41c0.5,0,1,0.4,1,1s-0.4,1-1,1H39.6z"/>
		<g>
			<path class="st1" d="M41,57.4c0.4,0,0.7,0.3,0.7,0.7s-0.3,0.7-0.7,0.7h-1.5c-0.4,0-0.7-0.3-0.7-0.7s0.3-0.7,0.7-0.7H41 M41,56.8
				h-1.5c-0.7,0-1.2,0.6-1.2,1.2c0,0.7,0.6,1.2,1.2,1.2H41c0.7,0,1.2-0.6,1.2-1.2S41.7,56.8,41,56.8L41,56.8z"/>
		</g>
	</g>
	<path class="st1" d="M39.5,58.2c0,0.2-0.1,0.3-0.3,0.3h-1c-0.2,0-0.3-0.1-0.3-0.3l0,0c0-0.2,0.1-0.3,0.3-0.3h1
		C39.3,57.8,39.5,58,39.5,58.2L39.5,58.2z"/>
	<g>
		<path class="st5" d="M34.3,63.6c-0.2,0-0.3-0.1-0.3-0.3v-3.9c0-0.2,0.1-0.3,0.3-0.3h11.6c0.2,0,0.3,0.1,0.3,0.3v3.9
			c0,0.2-0.1,0.3-0.3,0.3H34.3z"/>
		<g>
			<path class="st1" d="M45.9,59.4v3.9H34.3v-3.9H45.9 M45.9,58.8H34.3c-0.3,0-0.6,0.3-0.6,0.6v3.9c0,0.3,0.3,0.6,0.6,0.6h11.6
				c0.3,0,0.6-0.3,0.6-0.6v-3.9C46.5,59,46.2,58.8,45.9,58.8L45.9,58.8z"/>
		</g>
	</g>
	<path class="st10" d="M44.4,63.3h1.5v-3.9h-6.1C39.8,59.4,43.4,58.8,44.4,63.3z"/>
	<g>
		<path class="st3" d="M45.9,61.3c-2.1,0-3.9-1.7-3.9-3.9c0-2.1,1.7-3.9,3.9-3.9c2.1,0,3.9,1.7,3.9,3.9C49.8,59.6,48,61.3,45.9,61.3
			z"/>
		<g>
			<path class="st1" d="M45.9,53.9c2,0,3.6,1.6,3.6,3.6c0,2-1.6,3.6-3.6,3.6c-2,0-3.6-1.6-3.6-3.6C42.3,55.5,43.9,53.9,45.9,53.9
				 M45.9,53.3c-2.3,0-4.2,1.9-4.2,4.2c0,2.3,1.9,4.2,4.2,4.2c2.3,0,4.2-1.9,4.2-4.2C50.1,55.2,48.2,53.3,45.9,53.3L45.9,53.3z"/>
		</g>
	</g>
	<path class="st4" d="M49.5,57.5C49.5,57.5,49.5,57.5,49.5,57.5c-1.2,1.7-3.2,1.8-4.5,1.1c-1.4-0.8-1.7-2.4-1.5-3.7
		c-0.7,0.6-1.1,1.6-1.1,2.6c0,2,1.6,3.6,3.6,3.6C47.9,61,49.5,59.4,49.5,57.5z"/>
	<path class="st2" d="M25.4,34.7c0,0,0.7-6.1,1.5-6.5c1.5,2.3,3.4,2.9,3.4,2.9c-0.7-1-0.7-6.8-0.7-6.8c2.2,3.4,4.4,4.5,4.4,4.5
		c-0.7-1-0.6-5-0.6-5c1.3,2.2,4.5,4.7,8.5,5.4c-1.6-2.5-1.8-3.3-1.8-3.3c2.4,2.6,5.1,3.9,9.4,4.4C48.2,29,48,28.7,48,28.7
		c2.6,2.2,7.4,4.7,7.4,4.7c-2.3-9.7-9.9-12.8-9.9-12.8l-11.6-1l-5,2.5l-3.4,3.8l-1.6,3.4L25.4,34.7z"/>
	<g>
		<path class="st12" d="M25.4,35.4c-2-3.1-3-6.6-3-10.4c0-10.2,8-18.6,17.7-18.6c9.8,0,17.7,8.3,17.7,18.6c0,3.7-1,7.3-3,10.4
			l-0.9,1.4l0.4-1.7c0.1-0.6,0.3-1.2,0.4-1.9c-1.8-1.4-4.5-3.7-6.3-5.6c0.3,0.8,0.8,1.7,1.3,2.5l0.4,0.7l-0.8-0.2
			c-2.5-0.7-6.2-2.7-8.5-4.9c0.2,0.9,0.6,2.1,1.1,3.1l0.4,0.8l-0.8-0.4c-2.8-1.5-4.9-2.9-6.5-4.7c0,0.8,0.1,2.1,0.1,3l0,0.6
			l-0.5-0.3c-1.7-1.1-2.9-2.5-3.5-3.5c0.1,1.3,0.6,3,1.5,4.4l0.4,0.6l-0.7-0.1c-0.1,0-2.6-0.5-4.5-2.2c0.1,0.9,0.4,2.6,1.2,4.3
			l0.3,0.6l-0.6-0.2c-1.3-0.3-2.5-1.1-3.6-2.2c0.1,1.9,0.3,3.8,0.7,5.6l0.4,1.7L25.4,35.4z"/>
		<path class="st1" d="M40.1,6.8c9.6,0,17.4,8.2,17.4,18.3c0,3.8-1.1,7.3-3,10.2c0.2-0.7,0.3-1.4,0.4-2.1c-2.1-1.7-6.1-5.1-7.4-7
			c0,0,0.7,2.3,1.9,4.2c-3-0.9-7.1-3.2-9.2-5.7c0,0,0.5,2.4,1.4,4.2c-3-1.6-5.2-3.1-7-5.2c0,0,0.1,2.3,0.2,3.8c-2.7-1.7-4-4.3-4-4.3
			c-0.1,1.6,0.4,3.9,1.6,5.7c0,0-3-0.6-4.9-2.6c0,0,0.1,2.6,1.3,5.1c-1.7-0.4-3-1.5-3.9-2.6c0,2.2,0.3,4.4,0.8,6.4
			c-1.9-2.9-3-6.4-3-10.2C22.7,15,30.5,6.8,40.1,6.8 M40.1,6.2c-9.9,0-18,8.5-18,18.9c0,3.8,1.1,7.4,3.1,10.5l1.9,2.9l-0.8-3.4
			c-0.4-1.6-0.6-3.2-0.7-4.8c1,0.9,2,1.4,3.2,1.7l1.3,0.3l-0.6-1.2c-0.6-1.2-0.9-2.5-1.1-3.5c1.9,1.3,4,1.8,4.1,1.8l1.4,0.3
			l-0.8-1.2c-0.7-1-1.1-2.1-1.3-3.2c0.7,0.8,1.7,1.8,2.9,2.6l1,0.6l-0.1-1.1c0-0.7-0.1-1.5-0.1-2.3c1.6,1.5,3.5,2.8,6.1,4.2l1.6,0.8
			l-0.8-1.6c-0.3-0.6-0.6-1.4-0.8-2c2.4,2,5.6,3.6,7.9,4.3l1.5,0.4L50,30.1c-0.2-0.3-0.4-0.7-0.6-1c1.6,1.5,3.6,3.2,5,4.3
			c-0.1,0.6-0.2,1.2-0.3,1.7l-0.8,3.4l1.9-2.9c2-3.1,3.1-6.7,3.1-10.5C58.1,14.6,50,6.2,40.1,6.2L40.1,6.2z"/>
	</g>
	<path class="st13" d="M41.7,6.9c3.6,1.7,8.1,4.7,9.5,9.4c1.7,6,1,10.5,0.1,13.7c1.4,1.2,2.8,2.4,3.8,3.2c-0.1,0.7-0.2,1.4-0.4,2.1
		c1.9-2.9,3-6.4,3-10.2C57.5,15.5,50.6,7.7,41.7,6.9z"/>
	<g>
		<path class="st14" d="M30.5,10.6c0,0,0.2,0,0.4-0.1c0.3,0,0.7-0.1,1.2-0.2c1.1-0.1,2.6-0.3,4.5-0.2c0.9,0,1.9,0.1,3,0.2
			c1.1,0.1,2.2,0.3,3.3,0.6c1.1,0.3,2.3,0.7,3.4,1.2c1.1,0.5,2.2,1.2,3.2,2c0.2,0.2,0.5,0.4,0.7,0.7l0.2,0.2
			c0.1,0.1,0.1,0.1,0.2,0.2l0.3,0.3c0.2,0.2,0.4,0.5,0.6,0.7c0.2,0.2,0.4,0.5,0.5,0.8c0.7,1,1.3,2.1,1.7,3.2
			c0.5,1.1,0.8,2.2,1.1,3.2c0.3,1,0.4,2,0.5,3c0.2,1.9,0.2,3.4,0.1,4.5c0,0.5-0.1,1-0.1,1.2c0,0.3-0.1,0.4-0.1,0.4s0-0.2,0-0.4
			c0-0.3,0-0.7,0-1.2c0-1.1-0.1-2.6-0.4-4.4c-0.1-0.9-0.3-1.9-0.6-2.9c-0.3-1-0.6-2.1-1.1-3.1s-1-2.1-1.7-3.1
			c-0.2-0.2-0.3-0.5-0.5-0.7l-0.3-0.3c-0.1-0.1-0.2-0.2-0.3-0.3l-0.3-0.3c0-0.1-0.1-0.1-0.1-0.2l-0.2-0.2c-0.2-0.2-0.4-0.4-0.7-0.6
			c-0.9-0.8-1.9-1.4-3-2c-1.1-0.5-2.2-0.9-3.3-1.2c-2.2-0.6-4.4-0.8-6.2-0.9c-1.8-0.1-3.4,0-4.5,0c-0.5,0-1,0.1-1.2,0.1
			C30.7,10.6,30.5,10.6,30.5,10.6z"/>
	</g>
	<g>
		<path class="st15" d="M29.6,11.3c0,0-0.1,0.3-0.3,0.8c-0.1,0.2-0.2,0.5-0.3,0.9c-0.1,0.3-0.2,0.7-0.4,1.1
			c-0.1,0.4-0.2,0.9-0.4,1.4c-0.1,0.5-0.2,1-0.3,1.5c-0.1,0.5-0.1,1.1-0.2,1.7c0,0.6,0,1.1,0,1.7c0,0.3,0,0.6,0.1,0.9
			c0,0.1,0,0.3,0.1,0.4c0,0.1,0.1,0.3,0.1,0.4c0.1,0.6,0.3,1.1,0.4,1.6c0.1,0.3,0.2,0.5,0.3,0.7c0.1,0.2,0.2,0.5,0.3,0.7
			c0.1,0.2,0.2,0.4,0.4,0.6c0.1,0.2,0.3,0.4,0.4,0.6c0.1,0.1,0.1,0.2,0.2,0.3c0.1,0.1,0.1,0.2,0.2,0.2c0.1,0.2,0.2,0.3,0.4,0.4
			c0.2,0.3,0.4,0.5,0.6,0.7c0.4,0.4,0.6,0.6,0.6,0.6S31.4,28.3,31,28c-0.2-0.2-0.4-0.4-0.7-0.6c-0.1-0.1-0.3-0.3-0.4-0.4
			c-0.1-0.1-0.1-0.1-0.2-0.2c-0.1-0.1-0.1-0.2-0.2-0.3c-0.1-0.2-0.3-0.3-0.4-0.6c-0.1-0.2-0.3-0.4-0.4-0.6c-0.1-0.2-0.3-0.5-0.4-0.7
			c-0.1-0.1-0.1-0.2-0.2-0.4c-0.1-0.1-0.1-0.3-0.2-0.4c0-0.1-0.1-0.3-0.1-0.4l-0.1-0.2L27.6,23c0-0.1-0.1-0.3-0.1-0.4
			c0-0.1-0.1-0.3-0.1-0.4c0-0.1-0.1-0.3-0.1-0.4c0-0.1,0-0.3-0.1-0.4c0-0.3-0.1-0.6-0.1-0.9c0-0.6,0-1.2,0-1.8
			c0-0.6,0.1-1.2,0.2-1.7c0.1-0.5,0.2-1.1,0.4-1.6c0.1-0.5,0.3-0.9,0.5-1.4c0.3-0.8,0.6-1.5,0.9-2C29.4,11.5,29.6,11.3,29.6,11.3z"
			/>
	</g>
	<path class="st13" d="M25.6,35.2c-0.3-1.2-0.5-2.5-0.6-3.9c-0.9-0.9-1.6-2-2.1-3.1C23.4,30.8,24.3,33.2,25.6,35.2z"/>
	<g>
		<path class="st13" d="M49.5,30.4c-0.4-0.7-0.8-1.4-1.1-2.1c-4-0.7-8.1-3.6-8.1-3.6C42.4,27.2,46.5,29.5,49.5,30.4z"/>
	</g>
	<g>
		<path class="st13" d="M40.8,26.5c-2.1,0.5-6.1-2.8-6.1-2.8c1.9,2,4.1,3.6,7,5.2C41.3,28.2,41,27.3,40.8,26.5z"/>
	</g>
	<path class="st13" d="M34.8,25.9c-1.8,0.1-3.9-2.6-3.9-2.6l0.1,0.1c0.3,0.5,1.6,2.7,3.9,4.2C34.8,27.1,34.8,26.4,34.8,25.9z"/>
	<path class="st13" d="M40.3,24.7c0,0-6.1-5.2-9-11.3c3.7,4.8,10.8,13,17.1,14.9c-1.8,0-4.1-0.8-4.1-0.8L40.3,24.7z"/>
	<g>
		<path class="st14" d="M30,10.9c0,0,0.3,0.3,0.7,0.9c0.2,0.3,0.5,0.6,0.8,1c0.3,0.4,0.7,0.8,1.1,1.3c0.4,0.5,0.8,1,1.3,1.5
			c0.5,0.5,1,1.1,1.5,1.7c0.3,0.3,0.5,0.6,0.8,0.9c0.3,0.3,0.5,0.6,0.8,0.9c0.5,0.6,1.1,1.2,1.7,1.8c0.6,0.6,1.2,1.2,1.7,1.8
			c0.6,0.6,1.2,1.1,1.7,1.7c0.6,0.5,1.1,1,1.7,1.5c0.5,0.5,1.1,0.9,1.5,1.3c0.5,0.4,0.9,0.7,1.3,1c0.1,0.1,0.2,0.2,0.3,0.2
			c0.1,0.1,0.2,0.1,0.3,0.2c0.2,0.1,0.3,0.2,0.5,0.3c0.6,0.4,0.9,0.6,0.9,0.6s-0.4-0.2-1-0.6c-0.2-0.1-0.3-0.2-0.5-0.3
			c-0.1-0.1-0.2-0.1-0.3-0.2c-0.1-0.1-0.2-0.1-0.3-0.2c-0.4-0.3-0.9-0.6-1.4-0.9c-0.5-0.4-1-0.8-1.6-1.2c-0.6-0.4-1.1-0.9-1.7-1.5
			c-0.6-0.5-1.2-1.1-1.8-1.6c-0.6-0.6-1.2-1.2-1.7-1.8c-0.6-0.6-1.1-1.2-1.7-1.8c-0.5-0.6-1.1-1.2-1.6-1.8c-0.5-0.6-1-1.2-1.4-1.7
			c-0.4-0.6-0.8-1.1-1.2-1.6c-0.7-1-1.3-1.9-1.7-2.5c-0.2-0.3-0.4-0.5-0.5-0.7C30,11,30,10.9,30,10.9z"/>
	</g>
	<path class="st13" d="M30.5,10.9c0,0,16.3,4.1,21.3,18.7c0.4,1.2,2-3.3,2.3-2C54.1,24.2,49.9,10.9,30.5,10.9z"/>
	<path class="st13" d="M31.4,26.8c-1.8,1.2-3.9-0.5-3.9-0.5c1.9,2.1,4.9,2.6,4.9,2.6C32,28.3,31.7,27.6,31.4,26.8z"/>
	<path class="st13" d="M28,29.5c-1.7,0.5-3.2-0.7-3.2-0.7c1,1.1,2.3,2.2,3.9,2.6C28.5,30.8,28.2,30.1,28,29.5z"/>
	<g>
		<path class="st16" d="M30,10.9c0,0,0.4,1.2,1.2,3c0.2,0.5,0.4,0.9,0.6,1.4c0.2,0.5,0.5,1,0.7,1.6c0.3,0.6,0.6,1.1,0.9,1.7
			c0.1,0.3,0.3,0.6,0.5,0.8c0.2,0.3,0.3,0.6,0.5,0.8c0.3,0.6,0.7,1.1,1,1.6c0.2,0.3,0.4,0.5,0.5,0.8c0.2,0.3,0.4,0.5,0.5,0.7
			c0.2,0.2,0.4,0.5,0.6,0.7c0.2,0.2,0.4,0.4,0.5,0.7c0.2,0.2,0.4,0.4,0.5,0.6c0.2,0.2,0.3,0.4,0.5,0.6c0.3,0.4,0.7,0.7,1,0.9
			c0.3,0.3,0.6,0.5,0.8,0.7c0.4,0.4,0.7,0.6,0.7,0.6s-0.3-0.2-0.8-0.5c-0.2-0.2-0.5-0.4-0.8-0.6c-0.2-0.1-0.3-0.3-0.5-0.4
			c-0.2-0.1-0.4-0.3-0.5-0.5c-0.2-0.2-0.4-0.3-0.6-0.5c-0.2-0.2-0.4-0.4-0.6-0.6c-0.4-0.4-0.8-0.9-1.2-1.3c-0.2-0.2-0.4-0.5-0.6-0.7
			c-0.1-0.1-0.2-0.3-0.3-0.4c-0.1-0.1-0.2-0.3-0.3-0.4c-0.4-0.5-0.7-1.1-1.1-1.7c-0.2-0.3-0.3-0.6-0.5-0.9c-0.2-0.3-0.3-0.6-0.5-0.9
			c-0.1-0.3-0.3-0.6-0.4-0.9c-0.1-0.3-0.3-0.6-0.4-0.9c-0.3-0.6-0.5-1.1-0.7-1.6c-0.2-0.5-0.4-1-0.5-1.5c-0.2-0.5-0.3-0.9-0.4-1.3
			c-0.1-0.4-0.2-0.7-0.3-1C30,11.3,30,10.9,30,10.9z"/>
	</g>
	<g>
		<path class="st16" d="M28.8,11.8c0,0,0,0.1-0.1,0.2c-0.1,0.1-0.2,0.3-0.4,0.5c-0.2,0.2-0.3,0.5-0.5,0.9c-0.2,0.3-0.4,0.7-0.6,1.2
			C27,15,26.8,15.5,26.6,16c-0.2,0.5-0.4,1.1-0.5,1.6c-0.2,0.6-0.3,1.2-0.4,1.8c-0.1,0.3-0.1,0.6-0.1,0.9c0,0.3-0.1,0.6-0.1,0.9
			c0,0.6,0,1.3,0,1.9c0,0.2,0,0.3,0,0.5c0,0.2,0,0.3,0.1,0.5c0,0.2,0,0.3,0.1,0.4c0,0.1,0.1,0.3,0.1,0.4c0,0.1,0.1,0.3,0.1,0.4
			c0,0.1,0.1,0.3,0.1,0.4c0,0.1,0.1,0.3,0.1,0.4c0,0.1,0.1,0.3,0.1,0.4c0.2,0.5,0.4,1,0.5,1.4c0.1,0.2,0.2,0.4,0.3,0.6
			c0,0.1,0.1,0.2,0.1,0.3c0,0.1,0.1,0.2,0.1,0.3c0.2,0.3,0.3,0.7,0.5,0.9c0.3,0.5,0.4,0.8,0.4,0.8s-0.2-0.3-0.5-0.7
			c-0.2-0.2-0.3-0.5-0.5-0.9C27,29.2,27,29.1,26.9,29c0-0.1-0.1-0.2-0.2-0.3c-0.1-0.2-0.2-0.4-0.3-0.6c-0.2-0.4-0.4-0.9-0.6-1.4
			c0-0.1-0.1-0.3-0.1-0.4c0-0.1-0.1-0.3-0.1-0.4c0-0.1-0.1-0.3-0.1-0.4c0-0.1-0.1-0.3-0.1-0.4c0-0.1-0.1-0.3-0.1-0.4
			c0-0.2,0-0.3-0.1-0.5c0-0.2,0-0.3-0.1-0.5c0-0.2,0-0.3,0-0.5c-0.1-0.6-0.1-1.3,0-1.9c0-0.3,0-0.6,0.1-1c0-0.3,0.1-0.6,0.1-1
			c0.1-0.6,0.3-1.2,0.4-1.8c0.2-0.6,0.4-1.1,0.6-1.6c0.1-0.3,0.2-0.5,0.3-0.7c0.1-0.2,0.2-0.5,0.3-0.7c0.2-0.4,0.5-0.8,0.7-1.1
			c0.2-0.3,0.4-0.6,0.6-0.8c0.2-0.2,0.3-0.4,0.4-0.5C28.8,11.9,28.8,11.8,28.8,11.8z"/>
	</g>
	<g>
		<path class="st16" d="M30.9,11.1c0,0,0.1,0,0.4,0c0.2,0,0.6,0.1,1.1,0.1c0.4,0.1,1,0.1,1.6,0.3c0.3,0.1,0.6,0.1,1,0.2
			c0.3,0.1,0.7,0.2,1.1,0.3c0.8,0.2,1.6,0.4,2.4,0.7c0.4,0.1,0.9,0.3,1.3,0.5c0.2,0.1,0.4,0.2,0.7,0.3c0.2,0.1,0.4,0.2,0.7,0.3
			c0.2,0.1,0.4,0.2,0.7,0.3c0.2,0.1,0.4,0.2,0.7,0.3c0.5,0.2,0.9,0.5,1.3,0.7c0.2,0.1,0.4,0.3,0.7,0.4c0.2,0.1,0.4,0.3,0.7,0.4
			c0.4,0.3,0.9,0.6,1.3,0.9l0.6,0.5l0.6,0.5c0.4,0.3,0.8,0.7,1.1,1.1c0.2,0.2,0.4,0.4,0.5,0.6c0.2,0.2,0.3,0.4,0.5,0.6
			c0.3,0.4,0.6,0.8,0.9,1.2c0.3,0.4,0.6,0.8,0.8,1.2c0.2,0.4,0.5,0.8,0.7,1.2c0.2,0.4,0.4,0.8,0.6,1.2c0.2,0.4,0.3,0.8,0.5,1.1
			c0.2,0.4,0.3,0.7,0.4,1.1c0.1,0.2,0.1,0.3,0.2,0.5s0.1,0.3,0.1,0.5c0.1,0.3,0.1,0.6,0.2,0.9c0.1,0.3,0.1,0.5,0.2,0.7
			c0.1,0.4,0.1,0.8,0.2,1c0,0.2,0.1,0.4,0.1,0.4s0-0.1-0.1-0.4c-0.1-0.2-0.1-0.6-0.2-1c0-0.2-0.1-0.5-0.2-0.7
			c-0.1-0.3-0.2-0.5-0.3-0.8c0-0.2-0.1-0.3-0.2-0.5c-0.1-0.2-0.1-0.3-0.2-0.5c-0.1-0.3-0.2-0.7-0.4-1c-0.2-0.3-0.3-0.7-0.5-1.1
			c-0.2-0.4-0.4-0.7-0.6-1.1c-0.2-0.4-0.5-0.8-0.7-1.1c-0.3-0.4-0.5-0.8-0.8-1.1c-0.3-0.4-0.6-0.8-0.9-1.1c-0.2-0.2-0.3-0.4-0.5-0.5
			c-0.2-0.2-0.3-0.4-0.5-0.5c-0.4-0.3-0.7-0.7-1.1-1l-0.6-0.5l-0.6-0.5c-0.4-0.3-0.8-0.6-1.2-0.9c-0.2-0.1-0.4-0.3-0.6-0.4
			c-0.2-0.1-0.4-0.3-0.6-0.4c-0.4-0.2-0.9-0.5-1.3-0.7c-0.2-0.1-0.4-0.2-0.7-0.3c-0.2-0.1-0.4-0.2-0.7-0.3c-0.4-0.2-0.9-0.4-1.3-0.6
			c-0.4-0.2-0.8-0.4-1.3-0.5c-0.4-0.2-0.8-0.3-1.2-0.4c-0.4-0.1-0.8-0.3-1.1-0.4c-0.7-0.2-1.4-0.4-2-0.6c-0.6-0.2-1.1-0.3-1.6-0.4
			c-0.4-0.1-0.8-0.2-1-0.2C31.1,11.1,30.9,11.1,30.9,11.1z"/>
	</g>
	<g>
		<path class="st3" d="M36.5,55c-1.1,0-2.1-0.9-2.1-2.1c0-1.2,0.9-2.1,2.1-2.1s2.1,0.9,2.1,2.1C38.6,54.1,37.7,55,36.5,55z"/>
		<path class="st1" d="M36.5,51.1c1,0,1.8,0.8,1.8,1.8c0,1-0.8,1.8-1.8,1.8c-1,0-1.8-0.8-1.8-1.8C34.7,51.9,35.6,51.1,36.5,51.1
			 M36.5,50.6c-1.3,0-2.4,1.1-2.4,2.4c0,1.3,1.1,2.4,2.4,2.4s2.4-1.1,2.4-2.4C38.9,51.6,37.8,50.6,36.5,50.6L36.5,50.6z"/>
	</g>
	<g>
		<path class="st11" d="M36.5,51.1c-0.1,0-0.1,0-0.2,0c0.9,0.1,1.6,0.9,1.6,1.8c0,0.9-0.7,1.7-1.6,1.8c0.1,0,0.1,0,0.2,0
			c1,0,1.8-0.8,1.8-1.8C38.3,51.9,37.5,51.1,36.5,51.1z"/>
	</g>
	<path class="st10" d="M34.3,60.1c0.5-0.6,1.9-0.7,2.6-0.7h-2.6V60.1L34.3,60.1z"/>
	<g>
		<g>
			<path class="st17" d="M12.8,36.5c-1.4-2.5-1.4-5.4,0-6.2c0.2-0.1,0.5-0.2,0.9-0.2c1.5,0,3.3,1.5,4.4,3.5l7,12.7l-5.3,3L12.8,36.5
				z"/>
			<path class="st1" d="M13.7,30.3c1.3,0,3.1,1.3,4.2,3.3c1.3,2.4,6.9,12.4,6.9,12.4l-2.4,1.3L20,48.7c0,0-5.6-10-6.9-12.4
				c-1.3-2.4-1.3-5.1-0.1-5.8C13.2,30.4,13.5,30.3,13.7,30.3 M13.7,29.8c-0.4,0-0.7,0.1-1,0.2c-0.8,0.4-1.2,1.4-1.2,2.8
				c0,1.2,0.4,2.6,1.1,3.8C13.9,39,19.5,49,19.5,49l0.3,0.5l0.5-0.3l2.4-1.3l2.4-1.3l0.5-0.3l-0.3-0.5l-6.9-12.4
				C17.3,31.3,15.3,29.8,13.7,29.8L13.7,29.8z"/>
		</g>
		<path class="st18" d="M13.1,36.3c1.3,2.4,6.9,12.4,6.9,12.4l2.4-1.3L13,30.5C11.8,31.2,11.8,33.9,13.1,36.3z"/>
	</g>
	<g>
		<g>
			<path class="st19" d="M27.8,59.2c-0.1,0-0.2,0-0.2-0.1l-6.2-9.7c0-0.1-0.1-0.2,0-0.2c0-0.1,0.1-0.1,0.1-0.2l2.8-1.6
				c0,0,0.1,0,0.1,0c0,0,0.1,0,0.1,0c0.1,0,0.1,0.1,0.2,0.2l4.9,10.4c0.1,0.1,0,0.3-0.1,0.4l-1.5,0.8C27.9,59.2,27.9,59.2,27.8,59.2
				z"/>
			<path class="st1" d="M24.4,47.6l4.9,10.4l-1.5,0.8l-6.2-9.7L24.4,47.6 M24.4,47.1c-0.1,0-0.2,0-0.3,0.1l-2.8,1.6
				c-0.1,0.1-0.2,0.2-0.3,0.4c0,0.2,0,0.3,0.1,0.5l6.2,9.7c0.1,0.2,0.3,0.3,0.5,0.3c0.1,0,0.2,0,0.3-0.1l1.5-0.8
				c0.3-0.2,0.4-0.5,0.2-0.8l-4.9-10.4c-0.1-0.1-0.2-0.3-0.3-0.3C24.5,47.1,24.5,47.1,24.4,47.1L24.4,47.1z"/>
		</g>
		<polygon class="st20" points="28.9,58.3 29.3,58.1 24.9,48.8 24.1,49.4 		"/>
		<g>
			<path class="st19" d="M28.6,59.8c-0.5,0-1-0.3-1.2-0.7c-0.2-0.3-0.2-0.7-0.1-1c0.1-0.4,0.3-0.6,0.6-0.8c0.2-0.1,0.4-0.2,0.7-0.2
				c0.5,0,1,0.3,1.2,0.7c0.4,0.7,0.1,1.5-0.5,1.9C29,59.8,28.8,59.8,28.6,59.8z"/>
			<path class="st1" d="M28.6,57.4c0.4,0,0.7,0.2,0.9,0.6c0.3,0.5,0.1,1.2-0.4,1.5c-0.2,0.1-0.3,0.1-0.5,0.1c-0.4,0-0.7-0.2-0.9-0.6
				c-0.3-0.5-0.1-1.2,0.4-1.5C28.2,57.5,28.4,57.4,28.6,57.4 M28.6,56.8L28.6,56.8c-0.3,0-0.6,0.1-0.8,0.2c-0.4,0.2-0.7,0.6-0.8,1
				c-0.1,0.4-0.1,0.9,0.1,1.3c0.3,0.5,0.8,0.9,1.5,0.9c0.3,0,0.6-0.1,0.8-0.2c0.8-0.4,1.1-1.5,0.6-2.3
				C29.7,57.2,29.2,56.8,28.6,56.8L28.6,56.8z"/>
		</g>
		<g>
			<path class="st20" d="M28.5,57.4c0.1,0.1,0.1,0.2,0.2,0.3c0.3,0.5,0.1,1.2-0.4,1.5c-0.1,0.1-0.3,0.1-0.5,0.1
				c0.3,0.3,0.8,0.4,1.3,0.2c0.5-0.3,0.7-0.9,0.4-1.5C29.3,57.6,28.9,57.4,28.5,57.4z"/>
		</g>
	</g>
	<g>
		<path class="st19" d="M19.7,51.8c-0.5,0-1-0.3-1.2-0.7c-0.2-0.3-0.2-0.7-0.1-1.1c0.1-0.4,0.3-0.7,0.7-0.8l6.7-3.7
			c0.2-0.1,0.4-0.2,0.7-0.2c0.5,0,1,0.3,1.2,0.7c0.4,0.7,0.1,1.5-0.6,1.9l-6.7,3.7C20.2,51.7,19.9,51.8,19.7,51.8z"/>
		<g>
			<path class="st1" d="M26.4,45.5c0.4,0,0.8,0.2,1,0.6c0.3,0.5,0.1,1.2-0.4,1.5l-6.7,3.7c-0.2,0.1-0.4,0.1-0.5,0.1
				c-0.4,0-0.8-0.2-1-0.6c-0.3-0.5-0.1-1.2,0.4-1.5l6.7-3.7C26,45.6,26.2,45.5,26.4,45.5 M26.4,45L26.4,45c-0.3,0-0.6,0.1-0.8,0.2
				l-6.7,3.7c-0.4,0.2-0.7,0.6-0.8,1c-0.1,0.4-0.1,0.9,0.1,1.3c0.3,0.5,0.9,0.9,1.5,0.9c0.3,0,0.6-0.1,0.8-0.2l6.7-3.7
				c0.8-0.5,1.1-1.5,0.7-2.3C27.6,45.3,27,45,26.4,45L26.4,45z"/>
		</g>
	</g>
	<path class="st21" d="M25.8,45.7l-1.7,1c0.6,0,1.2,1.2,1.2,1.9l1.6-0.9c0.5-0.3,0.7-1,0.4-1.5S26.4,45.4,25.8,45.7z"/>
	<g>
		<path class="st3" d="M25.8,57.2c-2.1,0-3.9-1.7-3.9-3.9c0-2.1,1.7-3.9,3.9-3.9c2.1,0,3.9,1.7,3.9,3.9
			C29.7,55.5,27.9,57.2,25.8,57.2z"/>
		<g>
			<path class="st1" d="M25.8,49.8c2,0,3.6,1.6,3.6,3.6c0,2-1.6,3.6-3.6,3.6c-2,0-3.6-1.6-3.6-3.6C22.3,51.4,23.9,49.8,25.8,49.8
				 M25.8,49.2c-2.3,0-4.2,1.9-4.2,4.2c0,2.3,1.9,4.2,4.2,4.2s4.2-1.9,4.2-4.2C30,51.1,28.1,49.2,25.8,49.2L25.8,49.2z"/>
		</g>
	</g>
	<path class="st4" d="M29.4,53.4C29.4,53.4,29.4,53.3,29.4,53.4c-1.1,1.7-3.2,1.8-4.5,1.1c-1.4-0.8-1.7-2.4-1.5-3.7
		c-0.7,0.7-1.1,1.6-1.1,2.6c0,2,1.6,3.6,3.6,3.6C27.8,56.9,29.4,55.3,29.4,53.4z"/>
</g>
</svg>
